# File created by Blade
# Date/Time:  Fri Jan 16 19:41:12 2015
# Frame Rate: 120.000 fps
#------------------------------------------------------
:FULLY-SPECIFIED
:DEGREES
219
root 18.669016 35.506718 -21.656174 8.540387 6.809390 -0.661420
Spine -22.340748 -12.324175 -1.020203
Head 17.824472 5.777852 6.752548
LeftShoulder -1.798888 -2.757156 -4.736496
LeftArm -89.443143 56.931455 -188.260232
LeftForeArm 54.489872 -0.000000 113.501173
LeftHand 7.411349 0.000000 -21.784050
LeftHandThumb1 -26.253704 0.000000 33.147579
RightShoulder -18.893138 20.475557 -34.396202
RightArm 144.448835 63.666918 126.127920
RightForeArm 29.779013 -0.000000 155.682034
RightHand 1.145950 0.000000 -42.160421
RightHandThumb1 -24.326973 -0.000000 -32.862282
LeftUpLeg 0.767438 2.645406 1.602120
LeftLeg -6.735434 -0.000000 0.000000
LeftFoot -20.520378 26.525317 -14.470685
LeftToeBase 24.324183 -0.000000 -0.000000
RightUpLeg 1.061424 -12.397150 -1.043331
RightLeg -2.789919 -0.000000 0.000000
RightFoot -23.635642 -23.461153 20.982162
RightToeBase 22.883880 -0.000000 -0.000000
220
root 18.677418 35.507334 -21.656591 8.514096 6.843423 -0.644126
Spine -22.376044 -12.506901 -0.895166
Head 18.026835 5.947141 6.598697
LeftShoulder -1.550615 -3.286393 -4.978453
LeftArm -90.128406 57.668338 -189.150992
LeftForeArm 54.615245 0.000000 113.946855
LeftHand 7.578268 -0.000000 -21.391565
LeftHandThumb1 -26.253704 0.000000 33.147579
RightShoulder -18.752664 20.677599 -34.456126
RightArm 144.633703 63.621977 126.229352
RightForeArm 29.855668 -0.000000 155.748321
RightHand 1.210005 -0.000000 -42.058477
RightHandThumb1 -24.326973 -0.000000 -32.862282
LeftUpLeg 0.803063 2.707435 1.572313
LeftLeg -6.763604 -0.000000 0.000000
LeftFoot -20.470034 26.443288 -14.450110
LeftToeBase 24.338481 -0.000000 -0.000000
RightUpLeg 1.100269 -12.353518 -1.075531
RightLeg -2.798363 -0.000000 0.000000
RightFoot -23.643601 -23.543190 20.976359
RightToeBase 22.889290 -0.000000 -0.000000
221
root 18.683829 35.509748 -21.663286 8.516319 6.922266 -0.611949
Spine -22.492157 -12.857580 -0.779953
Head 18.399385 6.179784 6.600739
LeftShoulder -1.284480 -3.897977 -5.263972
LeftArm -90.510901 58.343675 -189.733289
LeftForeArm 54.468294 -0.000000 114.472595
LeftHand 7.080305 -0.000000 -21.186401
LeftHandThumb1 -26.253704 0.000000 33.147579
RightShoulder -18.341952 20.844018 -34.256034
RightArm 145.112799 63.565437 126.480152
RightForeArm 29.858464 -0.000000 155.807781
RightHand 1.369548 0.000000 -42.063483
RightHandThumb1 -24.326973 -0.000000 -32.862282
LeftUpLeg 0.772525 2.732756 1.533181
LeftLeg -6.752471 -0.000000 0.000000
LeftFoot -20.421230 26.352674 -14.459930
LeftToeBase 24.341258 -0.000000 -0.000000
RightUpLeg 1.099357 -12.360628 -1.104233
RightLeg -2.791416 -0.000000 0.000000
RightFoot -23.664423 -23.604411 21.005782
RightToeBase 22.883336 -0.000000 -0.000000
222
root 18.690045 35.510625 -21.673693 8.594525 7.034599 -0.557633
Spine -22.641938 -13.097126 -0.681320
Head 18.621876 6.333567 6.499565
LeftShoulder -0.961589 -4.699221 -5.575538
LeftArm -91.338796 59.002290 -190.833264
LeftForeArm 54.764063 -0.000000 115.058384
LeftHand 7.750840 -0.000000 -21.496100
LeftHandThumb1 -26.253704 0.000000 33.147579
RightShoulder -18.151377 21.094611 -34.264069
RightArm 145.457434 63.536776 126.689871
RightForeArm 29.912736 -0.000000 155.852981
RightHand 1.404168 -0.000000 -41.929776
RightHandThumb1 -24.326973 -0.000000 -32.862282
LeftUpLeg 0.651877 2.666648 1.475493
LeftLeg -6.724646 -0.000000 0.000000
LeftFoot -20.385305 26.314662 -14.461749
LeftToeBase 24.295798 -0.000000 -0.000000
RightUpLeg 1.026835 -12.422330 -1.135148
RightLeg -2.791313 -0.000000 0.000000
RightFoot -23.682203 -23.680132 20.960407
RightToeBase 22.897277 -0.000000 -0.000000
223
root 18.694766 35.510319 -21.685141 8.648453 7.145419 -0.512838
Spine -22.769145 -13.307692 -0.590195
Head 18.883547 6.438973 6.403628
LeftShoulder -0.559297 -5.526917 -5.976259
LeftArm -92.330435 59.567342 -192.044676
LeftForeArm 54.680213 -0.000000 115.720660
LeftHand 8.582930 -0.000000 -21.261312
LeftHandThumb1 -26.253704 0.000000 33.147579
RightShoulder -17.956781 21.367719 -34.261368
RightArm 145.756158 63.521922 126.874932
RightForeArm 29.882107 -0.000000 155.937314
RightHand 1.480945 -0.000000 -41.806741
RightHandThumb1 -24.326973 -0.000000 -32.862282
LeftUpLeg 0.557034 2.581732 1.434735
LeftLeg -6.701186 -0.000000 0.000000
LeftFoot -20.356791 26.279790 -14.433969
LeftToeBase 24.318994 -0.000000 -0.000000
RightUpLeg 0.975238 -12.496211 -1.158241
RightLeg -2.792761 -0.000000 0.000000
RightFoot -23.701862 -23.740539 20.908896
RightToeBase 22.932145 -0.000000 -0.000000
224
root 18.700731 35.510360 -21.696053 8.692935 7.244029 -0.477090
Spine -22.890542 -13.477611 -0.506315
Head 19.144826 6.498239 6.331811
LeftShoulder -0.161727 -6.366886 -6.285624
LeftArm -93.759437 60.400674 -193.630228
LeftForeArm 54.468763 0.000000 116.378905
LeftHand 8.094481 -0.000000 -20.612273
LeftHandThumb1 -26.253704 0.000000 33.147579
RightShoulder -17.792486 21.658080 -34.272506
RightArm 145.927103 63.485320 126.977337
RightForeArm 29.888866 0.000000 156.050071
RightHand 1.559570 -0.000000 -41.701688
RightHandThumb1 -24.326973 -0.000000 -32.862282
LeftUpLeg 0.484940 2.499588 1.398499
LeftLeg -6.697472 -0.000000 0.000000
LeftFoot -20.300901 26.266202 -14.398932
LeftToeBase 24.261102 -0.000000 -0.000000
RightUpLeg 0.935431 -12.564192 -1.180604
RightLeg -2.803743 -0.000000 0.000000
RightFoot -23.716152 -23.824163 20.906945
RightToeBase 22.864933 -0.000000 -0.000000
225
root 18.705280 35.509638 -21.707865 8.750360 7.355644 -0.428348
Spine -23.025683 -13.640708 -0.445018
Head 19.405030 6.544428 6.263199
LeftShoulder 0.240099 -7.356251 -6.587259
LeftArm -95.542967 61.139298 -195.568174
LeftForeArm 53.437361 -0.000000 117.021215
LeftHand 7.338181 -0.000000 -19.639796
LeftHandThumb1 -26.253704 0.000000 33.147579
RightShoulder -17.636768 21.919769 -34.259760
RightArm 146.122638 63.418073 127.095603
RightForeArm 29.830414 -0.000000 156.127689
RightHand 1.701494 -0.000000 -41.529878
RightHandThumb1 -24.326973 -0.000000 -32.862282
LeftUpLeg 0.396637 2.445200 1.352785
LeftLeg -6.700090 -0.000000 0.000000
LeftFoot -20.280997 26.215412 -14.384931
LeftToeBase 24.376393 -0.000000 -0.000000
RightUpLeg 0.892111 -12.661626 -1.208598
RightLeg -2.825050 -0.000000 0.000000
RightFoot -23.719994 -23.862242 20.845006
RightToeBase 22.881339 -0.000000 -0.000000
226
root 18.707754 35.509788 -21.724533 8.766861 7.496995 -0.398627
Spine -23.142974 -13.958696 -0.336736
Head 19.760759 6.715583 6.256124
LeftShoulder 0.685083 -8.461655 -6.919743
LeftArm -96.878829 61.746614 -196.986406
LeftForeArm 51.063648 -0.000000 117.682142
LeftHand 6.126965 -0.000000 -18.655130
LeftHandThumb1 -26.253704 0.000000 33.147579
RightShoulder -17.264623 22.610215 -34.150414
RightArm 145.897230 63.598381 126.690105
RightForeArm 29.722313 -0.000000 156.205372
RightHand 1.669707 0.000000 -41.418347
RightHandThumb1 -24.326973 -0.000000 -32.862282
LeftUpLeg 0.327882 2.333862 1.335545
LeftLeg -6.685066 -0.000000 0.000000
LeftFoot -20.234543 26.189796 -14.345466
LeftToeBase 24.373921 -0.000000 -0.000000
RightUpLeg 0.890049 -12.773382 -1.220316
RightLeg -2.854525 -0.000000 0.000000
RightFoot -23.703829 -23.854212 20.796692
RightToeBase 22.915501 -0.000000 -0.000000
227
root 18.706611 35.512206 -21.744919 8.825524 7.723349 -0.334916
Spine -23.329233 -14.392899 -0.278971
Head 20.210772 6.877245 6.360299
LeftShoulder 1.283707 -9.770232 -7.321416
LeftArm -97.370693 61.987038 -197.384270
LeftForeArm 48.137063 -0.000000 118.315973
LeftHand 6.022746 -0.000000 -18.622327
LeftHandThumb1 -26.253704 0.000000 33.147579
RightShoulder -16.796639 22.919079 -33.859606
RightArm 146.229000 63.545462 126.806262
RightForeArm 29.726674 -0.000000 156.285803
RightHand 1.826368 -0.000000 -41.098341
RightHandThumb1 -24.326973 -0.000000 -32.862282
LeftUpLeg 0.174452 2.179412 1.298045
LeftLeg -6.614440 -0.000000 0.000000
LeftFoot -20.183493 26.112643 -14.341152
LeftToeBase 24.376210 -0.000000 -0.000000
RightUpLeg 0.858111 -12.986830 -1.238391
RightLeg -2.896108 -0.000000 0.000000
RightFoot -23.705800 -23.906115 20.794145
RightToeBase 22.899230 -0.000000 -0.000000
228
root 18.716399 35.510451 -21.756721 8.916912 7.804757 -0.306791
Spine -23.553261 -14.578303 -0.117184
Head 20.493882 7.011370 6.229789
LeftShoulder 1.987841 -11.165961 -7.818638
LeftArm -98.294877 61.619586 -198.346825
LeftForeArm 47.379728 -0.000000 118.566344
LeftHand 5.647514 -0.000000 -17.038347
LeftHandThumb1 -26.253704 0.000000 33.147579
RightShoulder -16.512564 23.070419 -33.794326
RightArm 146.735442 63.292423 127.277789
RightForeArm 29.759568 0.000000 156.356827
RightHand 2.020237 -0.000000 -41.071837
RightHandThumb1 -24.326973 -0.000000 -32.862282
LeftUpLeg 0.091005 2.093883 1.261684
LeftLeg -6.679004 -0.000000 0.000000
LeftFoot -20.125723 26.128391 -14.290827
LeftToeBase 24.392688 -0.000000 -0.000000
RightUpLeg 0.793586 -13.048820 -1.253175
RightLeg -2.949774 -0.000000 0.000000
RightFoot -23.686250 -23.918166 20.686571
RightToeBase 23.053831 -0.000000 -0.000000
229
root 18.721544 35.511198 -21.765032 9.109586 7.868749 -0.256745
Spine -23.926793 -14.756980 0.042338
Head 20.775208 7.100433 6.070365
LeftShoulder 2.673014 -12.404279 -8.328728
LeftArm -99.200450 60.795085 -199.142466
LeftForeArm 47.888767 0.000000 118.848526
LeftHand 5.912215 -0.000000 -16.164882
LeftHandThumb1 -26.253704 0.000000 33.147579
RightShoulder -16.235719 23.408044 -33.851923
RightArm 146.930174 63.168572 127.571023
RightForeArm 30.054425 -0.000000 156.408151
RightHand 2.293868 -0.000000 -40.560147
RightHandThumb1 -24.326973 -0.000000 -32.862282
LeftUpLeg -0.081263 2.055736 1.204148
LeftLeg -6.751797 -0.000000 0.000000
LeftFoot -20.027244 26.101865 -14.288972
LeftToeBase 24.348705 -0.000000 -0.000000
RightUpLeg 0.643459 -13.085927 -1.263779
RightLeg -3.023012 -0.000000 0.000000
RightFoot -23.667818 -23.916542 20.744943
RightToeBase 22.956939 -0.000000 -0.000000
